<svg xmlns="http://www.w3.org/2000/svg" xmlns:xlink="http://www.w3.org/1999/xlink" width="24" height="24" viewBox="0 0 24 24">
    <defs>
        <path id="a" d="M20.085 19.099a1.05 1.05 0 0 1 1.046 1.05c0 .572-.508 1.051-1.087 1.051H1.846A1.053 1.053 0 0 1 .8 20.15c0-.577.472-1.051 1.046-1.051h18.239zM19.46 1.133c.72-.617 1.74-.269 1.74.735v14.196c0 .568-.46 1.03-1.026 1.03H1.891a1.029 1.029 0 0 1-1.026-1.03V1.827c0-.98 1.058-1.328 1.75-.73l3.76 3.362 3.823-3.369c.425-.388.976-.384 1.435-.002l3.936 3.482 3.89-3.437zm-.312 3.172l-2.852 2.436c-.4.401-1.051.401-1.442.008l-3.936-3.482-3.824 3.371c-.34.323-.995.366-1.44.003L2.917 4.287v10.746h16.231V4.305z"/>
    </defs>
    <g fill="none" fill-rule="evenodd" transform="translate(1 1)">
        <mask id="b" fill="#fff">
            <use xlink:href="#a"/>
        </mask>
        <use fill="#000" fill-rule="nonzero" xlink:href="#a"/>
        <g fill="#000" mask="url(#b)">
            <path d="M-1-1h24v24H-1z"/>
        </g>
    </g>
</svg>
