<svg xmlns="http://www.w3.org/2000/svg" xmlns:xlink="http://www.w3.org/1999/xlink" width="24" height="24" viewBox="0 0 24 24">
    <defs>
        <path id="a" d="M13 12.228c1.725.45 3 2.035 3 3.922 0 2.237-1.79 4.05-4 4.05s-4-1.813-4-4.05a4.043 4.043 0 0 1 3-3.922V9.063c0-.56.448-1.013 1-1.013s1 .453 1 1.012v3.166zM12 4c4.97 0 9 4.08 9 9.113 0 .559-.448 1.012-1 1.012s-1-.453-1-1.012c0-3.915-3.134-7.088-7-7.088s-7 3.173-7 7.088c0 .559-.448 1.012-1 1.012s-1-.453-1-1.012C3 8.08 7.03 4 12 4zm0 10.125c-1.105 0-2 .907-2 2.025 0 1.118.895 2.025 2 2.025s2-.907 2-2.025c0-1.118-.895-2.025-2-2.025z"/>
    </defs>
    <g fill="none" fill-rule="evenodd">
        <mask id="b" fill="#fff">
            <use xlink:href="#a"/>
        </mask>
        <use fill="#1D1D1B" fill-rule="nonzero" xlink:href="#a"/>
        <g fill="#FFF" mask="url(#b)">
            <path d="M0 0h24v24H0z"/>
        </g>
    </g>
</svg>
