<svg xmlns="http://www.w3.org/2000/svg" xmlns:xlink="http://www.w3.org/1999/xlink" width="56" height="66" viewBox="0 0 56 66">
    <defs>
        <path id="a" d="M41.485 22.069c-5.998-8.496-9.075-12.744-9.228-12.744H6.914C2.996 9.325 0 12.33 0 16.26v36.991c0 3.93 2.996 6.936 6.914 6.936h27.657c3.918 0 6.914-3.006 6.914-6.936V25.508v-3.44zm-6.914 34.607H6.914c-2.287 0-3.414-1.095-3.414-3.425v-36.99c0-2.528 1.123-3.722 3.414-3.722h17.824L38.5 26.125V53.25c0 2.307-1.051 3.425-3.929 3.425zm-2.305-18.76c0 1.387-.922 1.464-2.304 1.464H11.524c-1.383 0-2.305-.077-2.305-1.465 0-1.387.922-1.464 2.305-1.464h18.438c1.382 0 2.304.077 2.304 1.464zm0 9.247c0 1.387-.922 1.464-2.304 1.464H11.524c-1.383 0-2.305-.077-2.305-1.464s.922-1.464 2.305-1.464h18.438c1.382 0 2.304.077 2.304 1.464zM9.22 28.668c0-1.387.922-1.464 2.305-1.464h4.61c1.382 0 2.304.077 2.304 1.464s-.922 1.464-2.305 1.464h-4.61c-1.382 0-2.304-.077-2.304-1.464z"/>
    </defs>
    <g fill="none" fill-rule="evenodd" transform="translate(0 5.224)">
        <use fill="#4A4A4F" fill-rule="nonzero" xlink:href="#a"/>
        <path stroke="#F9F9FA" stroke-linecap="round" stroke-linejoin="round" stroke-width="10" d="M23.662 26.621l2.087-9.975L42.564 0c2.027.203 3.686.944 4.976 2.224 1.29 1.28 2.21 2.951 2.76 5.014L33.13 24.77l-9.468 1.85z"/>
        <path fill="#F9F9FA" d="M27.35 13.486h10.08l-2.705 9.325H27.35z"/>
        <path stroke="#4A4A4F" stroke-linecap="round" stroke-linejoin="round" stroke-width="3" d="M23.662 26.621l2.087-9.975L40.873 2.543c2.028.203 3.687.944 4.977 2.224 1.29 1.28 2.21 2.951 2.76 5.014l-15.48 14.99-9.468 1.85z"/>
        <path stroke="#4A4A4F" stroke-linecap="round" stroke-linejoin="round" stroke-width="3" d="M25.813 16.954c2.414.928 4.033 1.805 4.858 2.633.825.827 1.656 2.437 2.493 4.828M24.584 24.415l1.23 1.17"/>
    </g>
</svg>
