<svg width="18" height="18" xmlns="http://www.w3.org/2000/svg">
    <path d="M10.845 11.645c.09.277.137.566.138.857v1.714c0 .27-.184.45-.46.45-.278 0-.463-.18-.463-.45v-1.76c.046-.36-.092-.63-.323-.855-.138-.136-.185-.316-.092-.451.046-.181.23-.271.369-.316 1.338-.135 2.584-.586 2.584-2.705a2.07 2.07 0 0 0-.553-1.398.423.423 0 0 1-.093-.451c.139-.36.139-.721.046-1.082-.23.045-.6.18-1.2.586-.092.09-.23.09-.369.045a5.646 5.646 0 0 0-3 0 .457.457 0 0 1-.415-.045c-.554-.406-.969-.54-1.2-.586A1.74 1.74 0 0 0 5.86 6.28c.046.18.046.36-.092.451a2.071 2.071 0 0 0-.554 1.398c0 2.119 1.246 2.57 2.585 2.705.184 0 .323.135.369.316.046.18 0 .36-.092.45-.231.226-.323.497-.323.812v1.759c0 .27-.185.45-.462.45s-.462-.18-.462-.45v-.767c-1.384.225-1.984-.541-2.4-1.037-.184-.226-.322-.406-.507-.45-.23-.046-.415-.316-.323-.542.046-.225.323-.406.554-.316.461.136.738.451 1.015.767.37.496.692.857 1.661.676v-.045c0-.27.047-.586.139-.812-1.292-.27-2.677-1.082-2.677-3.471 0-.677.23-1.308.646-1.804a2.44 2.44 0 0 1 .139-1.803.411.411 0 0 1 .277-.271c.184-.045.784-.135 2.03.632a6.94 6.94 0 0 1 3.046 0c1.2-.767 1.846-.677 2.03-.632.14.045.231.136.278.27.23.587.277 1.173.138 1.76.422.505.65 1.144.647 1.803 0 2.57-1.57 3.291-2.677 3.516zM9 .667a8.334 8.334 0 1 0-.183 16.667A8.334 8.334 0 0 0 9 .667" fill="#737373" fill-rule="evenodd"/>
</svg>