<svg xmlns="http://www.w3.org/2000/svg" width="49" height="60" viewBox="0 0 49 60">
    <g fill="none" fill-rule="evenodd">
        <path fill="#0060DF" d="M43.193 23.047H40.56v-6.723C40.56 7.322 33.277 0 24.324 0S8.088 7.324 8.088 16.326v6.723H5.454C2.447 23.049 0 25.506 0 28.529v25.757c0 3.023 2.447 5.484 5.454 5.484h37.74c3.007 0 5.454-2.46 5.454-5.484v-25.76c0-3.022-2.447-5.483-5.455-5.483v.004zM5.5 26.5H43a2 2 0 0 1 2 2v26a2 2 0 0 1-2 2H5.5a2 2 0 0 1-2-2v-26a2 2 0 0 1 2-2zM24.324 3.541c6.483 0 12.72 5.278 12.72 12.017v7.49H11.6v-7.49c0-6.739 6.241-12.017 12.724-12.017z"/>
        <path stroke="#0060DF" stroke-width="3" d="M26.943 41.21v6.355c0 1.016-1.131 1.76-2.686 1.76-1.563 0-2.687-.744-2.687-1.76v-6.35c0-1.524-2.601-1.524-2.601-4.775 0-2.911 2.335-4.336 5.288-4.336 2.952 0 5.265 1.34 5.265 4.336 0 3.028-2.579 3.028-2.579 4.77z"/>
    </g>
</svg>
