<svg xmlns="http://www.w3.org/2000/svg" xmlns:xlink="http://www.w3.org/1999/xlink" width="18" height="16" viewBox="0 0 18 16">
  <path fill="currentColor" d="M12.75 13.25v1.5c0 .45-.3.75-.75.75s-.75-.3-.75-.75v-1.5c0-1.275-.975-2.25-2.25-2.25H3.75c-1.275 0-2.25.975-2.25 2.25v1.5c0 .45-.3.75-.75.75S0 15.2 0 14.75v-1.5c0-2.1 1.65-3.75 3.75-3.75H9c2.1 0 3.75 1.65 3.75 3.75zm-10.125-9c0-2.1 1.65-3.75 3.75-3.75s3.75 1.65 3.75 3.75S8.475 8 6.375 8s-3.75-1.65-3.75-3.75zm1.5 0c0 1.275.975 2.25 2.25 2.25s2.25-.975 2.25-2.25S7.65 2 6.375 2s-2.25.975-2.25 2.25z"/>
  <path fill="currentColor" d="M17.99 5.62c-.027-.108-.109-.161-.218-.188l-1.74-.24-.787-1.552c-.082-.187-.408-.187-.49 0l-.788 1.525-1.712.267c-.109 0-.19.08-.245.187-.027.107 0 .214.082.268l1.25 1.203-.299 1.712a.252.252 0 0 0 .109.267c.081.054.19.08.299.027L15 8.294l1.55.802h.135a.39.39 0 0 0 .163-.054.252.252 0 0 0 .109-.267l-.299-1.712 1.25-1.203c.082-.053.109-.16.082-.24z"/>
</svg>