<svg xmlns="http://www.w3.org/2000/svg" xmlns:xlink="http://www.w3.org/1999/xlink" width="24" height="24" viewBox="0 0 24 24">
  <path fill="currentColor" d="M17 19v2c0 .6-.4 1-1 1s-1-.4-1-1v-2c0-1.7-1.3-3-3-3H5c-1.7 0-3 1.3-3 3v2c0 .6-.4 1-1 1s-1-.4-1-1v-2c0-2.8 2.2-5 5-5h7c2.8 0 5 2.2 5 5zM3.5 7c0-2.8 2.2-5 5-5s5 2.2 5 5-2.2 5-5 5-5-2.2-5-5zm2 0c0 1.7 1.3 3 3 3s3-1.3 3-3-1.3-3-3-3-3 1.3-3 3zm18.2 1.3c-.4-.4-1-.4-1.4 0L19 11.6l-1.3-1.3c-.4-.4-1-.4-1.4 0-.4.4-.4 1 0 1.4l2 2c.2.2.5.3.7.3.2 0 .5-.1.7-.3l4-4c.4-.4.4-1 0-1.4z"/>
</svg>
