<svg xmlns="http://www.w3.org/2000/svg" width="24" height="24" viewBox="0 0 24 24">
    <g fill="#D7D7DB" fill-rule="evenodd" stroke="#4A4A4F" stroke-linejoin="round" stroke-width="1.5" transform="translate(3 2)">
        <path d="M11.377 11.632c.841.855 1.23 1.272 1.754 1.91 1.32 1.61 2.27 3.317 2.808 5.31l.168.62-.587.26c-.633.283-.672.3-.767.337l-.006.003c-.088.034-.165.064-.313.124-.242.099-.62.256-1.186.495l-.686.29-.295-.685c-.867-2.015-2.225-3.57-4.09-4.684C5.993 17.76 3.45 18.85.578 18.857l-.605.001-.13-.59c-.226-1.03-.4-1.875-.522-2.538l-.14-.762.767-.115c2.664-.398 4.496-1.611 5.572-3.666.396-2.213 1.324-3.934 2.788-5.128l.503-.41.478.438c1.541 1.415 3.861 1.913 7.017 1.45l.653-.095.178.635c.174.617.414 1.457.367 1.29.047.165.04.14.24.924l.16.63-.6.248c-1.34.555-4.4.741-5.928.463z"/>
        <circle cx="11.429" cy="2.857" r="3.607"/>
    </g>
</svg>
