<svg xmlns="http://www.w3.org/2000/svg" width="24" height="24" viewBox="0 0 24 24">
    <path fill="#4A4A4F" fill-rule="nonzero" d="M22.998 13.738c.09-.567.137-1.147.137-1.738C23.135 5.85 18.15.865 12 .865c-.59 0-1.172.048-1.738.137a6.729 6.729 0 0 0-9.26 9.261A11.338 11.338 0 0 0 .866 12C.866 18.15 5.85 23.134 12 23.134c.59 0 1.172-.046 1.738-.135a6.73 6.73 0 0 0 9.26-9.261zm-5.711 3.326c-.471.678-1.163 1.208-2.068 1.59-.906.381-1.976.571-3.213.571-1.482 0-2.71-.26-3.678-.783a4.766 4.766 0 0 1-1.674-1.505c-.43-.628-.649-1.243-.649-1.843 0-.353.135-.66.398-.911.265-.253.607-.38 1.01-.38.33 0 .614.1.845.297.23.197.422.484.579.862.189.438.393.804.611 1.096.217.289.522.53.916.718.39.189.91.284 1.56.284.89 0 1.609-.193 2.16-.573.552-.383.818-.849.818-1.412 0-.45-.143-.806-.437-1.084-.296-.282-.68-.497-1.154-.646a20.8 20.8 0 0 0-1.92-.481c-1.077-.235-1.978-.509-2.708-.823-.73-.316-1.312-.747-1.743-1.292-.433-.55-.648-1.234-.648-2.044 0-.772.227-1.462.683-2.063.455-.603 1.114-1.065 1.972-1.386.856-.321 1.864-.482 3.018-.482.923 0 1.721.107 2.397.32.674.213 1.236.496 1.685.85.446.354.775.727.983 1.118.207.393.312.777.312 1.15 0 .349-.135.664-.398.94a1.314 1.314 0 0 1-.991.418c-.354 0-.631-.082-.824-.255-.187-.167-.384-.433-.597-.804-.27-.518-.592-.921-.967-1.21-.365-.283-.967-.43-1.806-.428-.775 0-1.396.158-1.864.468-.471.315-.696.68-.698 1.108.001.269.078.495.234.688.157.195.376.365.658.507.282.145.569.257.857.337.292.083.775.203 1.448.36.843.183 1.608.386 2.295.607.686.222 1.271.49 1.755.81a3.42 3.42 0 0 1 1.14 1.216c.274.491.41 1.091.41 1.798a3.906 3.906 0 0 1-.707 2.292z"/>
</svg>
