<svg xmlns="http://www.w3.org/2000/svg" width="24" height="24" viewBox="0 0 24 24">
    <g fill="none" fill-rule="evenodd" transform="translate(0 4)">
        <path fill="#4A4A4F" d="M4.05 2.907c3.62-2.034 9.918-3.027 15.51 0-1.367-1.253-3.003-2.06-4.906-2.42.01-.043.097-.204.26-.483 1.754.149 2.91.499 5.196 1.865 1.83 2.814 2.918 5.28 3.154 10.705-1.77 2.198-5.145 3.068-6.792 3.062a6.005 6.005 0 0 1-.904-1.102 12.077 12.077 0 0 0 4.542-2.856c-4.318 3.432-13.019 3.096-16.62 0 1.017 1.154 2.517 2.109 4.501 2.865l-.9 1.06c-3.174-.368-5.416-1.378-6.727-3.029.219-4.019 1.26-7.587 3.127-10.705A12.168 12.168 0 0 1 8.727.004c.158.332.083.146.246.484-1.412.254-3.482.957-4.922 2.42z"/>
        <ellipse cx="8.4" cy="8.727" fill="#D7D7DB" rx="1.855" ry="1.964"/>
        <ellipse cx="15.164" cy="8.727" fill="#D7D7DB" rx="1.855" ry="1.964"/>
    </g>
</svg>
