<svg xmlns="http://www.w3.org/2000/svg" width="24" height="24" viewBox="0 0 24 24">
    <g fill="none" fill-rule="evenodd">
        <path fill="#4A4A4F" d="M1.385 7.509c0-2.794 1.363-5.387 4.12-6.298C9.29-.184 17.199.63 18.193 1.023c3.836.696 4.66 4.793 4.716 6.438-.12 6.117.556 8.517-4.716 10.148-3.607.87-7.19.87-10.751 0-.287 3.25 2.643 4.272 8.79 3.066-.006.925 0 .4 0 1.78-3.948 1.878-8.996.675-10.926-.037-4.81-2.556-3.92-12.85-3.92-14.91z"/>
        <path fill="#D7D7DB" d="M5.197 14.494l2.443-.016V8.352c0-.935.774-1.52 1.584-1.523.817-.004 1.67.581 1.67 1.523v3.863l2.412.006V8.352c0-.852.855-1.578 1.614-1.578.76 0 1.799.326 1.799 1.578v6.142h2.387v-6.36c0-.936-.642-3.751-3.567-3.751-1.548 0-2.677.815-3.388 2.446-.838-1.63-1.923-2.446-3.255-2.446-3.2-.114-3.73 2.923-3.73 3.76 0 2.373.03 6.351.03 6.351z"/>
    </g>
</svg>
