<svg xmlns="http://www.w3.org/2000/svg" xmlns:xlink="http://www.w3.org/1999/xlink" width="24" height="24" viewBox="0 0 24 24">
    <defs>
        <path id="a" d="M17 1H7C3.7 1 1 3.7 1 7v10c0 3.3 2.7 6 6 6h10c3.3 0 6-2.7 6-6V7c0-3.3-2.7-6-6-6zm4 16c0 2.2-1.8 4-4 4H7c-2.2 0-4-1.8-4-4V7c0-2.2 1.8-4 4-4h10c2.2 0 4 1.8 4 4v10zM12.8 7c-.5-.1-1-.1-1.5 0-2.7.4-4.6 3-4.2 5.7.4 2.5 2.5 4.3 4.9 4.3.2 0 .5 0 .7-.1 1.3-.2 2.5-.9 3.3-2 .8-1.1 1.1-2.4.9-3.7C16.7 9 15 7.3 12.8 7zm1.7 6.7c-.5.6-1.2 1.1-2 1.2-1.6.2-3.2-.9-3.4-2.5-.3-1.6.9-3.2 2.5-3.4h.8c1.3.2 2.3 1.2 2.5 2.5.2.8 0 1.6-.4 2.2zm3.9-7.6c0 .1.1.2.1.4 0 .3-.1.5-.3.7-.2.2-.5.3-.7.3-.2 0-.5-.1-.7-.3-.2-.2-.3-.5-.3-.7 0-.1 0-.3.1-.4 0-.1.1-.2.2-.3.4-.4 1-.4 1.4 0 .1.1.2.2.2.3z"/>
    </defs>
    <g fill="none" fill-rule="evenodd">
        <mask id="b" fill="#fff">
            <use xlink:href="#a"/>
        </mask>
        <use fill="#000" fill-rule="nonzero" xlink:href="#a"/>
        <g fill="#000" mask="url(#b)">
            <path d="M0 0h24v24H0z"/>
        </g>
    </g>
</svg>
