<svg xmlns="http://www.w3.org/2000/svg" xmlns:xlink="http://www.w3.org/1999/xlink" width="24" height="24" viewBox="0 0 24 24">
    <defs>
        <path id="a" d="M21.334 11.16l-3.024 3.01c-.201.2-.403.401-.705.602-1.109.803-2.318 1.204-3.628 1.204a6.02 6.02 0 0 1-4.838-2.408c-.302-.402-.201-1.104.202-1.405.403-.301 1.108-.2 1.41.2 1.31 1.807 3.83 2.108 5.645.803.201-.1.302-.2.403-.4l3.023-3.011c1.512-1.606 1.512-4.114-.1-5.62a4.092 4.092 0 0 0-5.645 0l-1.713 1.707a.977.977 0 0 1-1.41 0 .967.967 0 0 1 0-1.405l1.713-1.706a5.919 5.919 0 0 1 8.365 0c2.52 2.207 2.62 6.12.302 8.429zm-9.877 6.923L9.744 19.79a4.092 4.092 0 0 1-5.644 0c-1.613-1.505-1.613-4.114-.1-5.62l3.023-3.01.403-.4c.907-.603 1.915-.904 3.023-.803 1.109.2 2.016.702 2.62 1.605.303.401 1.008.502 1.412.2.403-.3.504-1.003.201-1.404-1.008-1.305-2.419-2.107-3.93-2.308-1.512-.301-3.125.1-4.435 1.104l-.605.602-3.023 3.01c-2.318 2.408-2.217 6.221.1 8.53C4 22.397 5.512 23 7.024 23c1.511 0 3.023-.602 4.233-1.706l1.713-1.706a.967.967 0 0 0 0-1.404c-.403-.402-1.109-.502-1.512-.1z"/>
    </defs>
    <g fill="none" fill-rule="evenodd">
        <mask id="b" fill="#fff">
            <use xlink:href="#a"/>
        </mask>
        <use fill="#000" fill-rule="nonzero" xlink:href="#a"/>
        <g fill="#000" mask="url(#b)">
            <path d="M0 0h24v24H0z"/>
        </g>
    </g>
</svg>
