<svg xmlns="http://www.w3.org/2000/svg" xmlns:xlink="http://www.w3.org/1999/xlink" width="24" height="24" viewBox="0 0 24 24">
    <defs>
        <path id="a" d="M19 2H5C3.3 2 2 3.3 2 5v16c0 .4.2.8.6.9.1.1.3.1.4.1.3 0 .5-.1.7-.3L7.4 18H19c1.7 0 3-1.3 3-3V5c0-1.7-1.3-3-3-3zm1 13c0 .6-.4 1-1 1H7c-.3 0-.5.1-.7.3L4 18.6V5c0-.6.4-1 1-1h14c.6 0 1 .4 1 1v10z"/>
        <path id="c" d="M0 0h24v24H0z"/>
    </defs>
    <g fill="none" fill-rule="evenodd">
        <mask id="b" fill="#fff">
            <use xlink:href="#a"/>
        </mask>
        <use fill="#000" fill-rule="nonzero" xlink:href="#a"/>
        <g mask="url(#b)">
            <use fill="#000" fill-opacity="0" xlink:href="#c"/>
        </g>
    </g>
</svg>
