<svg xmlns="http://www.w3.org/2000/svg" xmlns:xlink="http://www.w3.org/1999/xlink" width="24" height="24" viewBox="0 0 24 24">
    <defs>
        <path id="a" d="M14.5 10c-.83 0-1.5-.67-1.5-1.5v-5c0-.83.67-1.5 1.5-1.5s1.5.67 1.5 1.5v5c0 .83-.67 1.5-1.5 1.5zm6 0H19V8.5c0-.83.67-1.5 1.5-1.5s1.5.67 1.5 1.5-.67 1.5-1.5 1.5zm-11 4c.83 0 1.5.67 1.5 1.5v5c0 .83-.67 1.5-1.5 1.5S8 21.33 8 20.5v-5c0-.83.67-1.5 1.5-1.5zm-6 0H5v1.5c0 .83-.67 1.5-1.5 1.5S2 16.33 2 15.5 2.67 14 3.5 14zm10.5.5c0-.83.67-1.5 1.5-1.5h5c.83 0 1.5.67 1.5 1.5s-.67 1.5-1.5 1.5h-5c-.83 0-1.5-.67-1.5-1.5zm1.5 4.5c.83 0 1.5.67 1.5 1.5s-.67 1.5-1.5 1.5-1.5-.67-1.5-1.5V19h1.5zM10 9.5c0 .83-.67 1.5-1.5 1.5h-5C2.67 11 2 10.33 2 9.5S2.67 8 3.5 8h5c.83 0 1.5.67 1.5 1.5zM8.5 5C7.67 5 7 4.33 7 3.5S7.67 2 8.5 2s1.5.67 1.5 1.5V5H8.5z"/>
        <path id="c" d="M0 0h24v24H0z"/>
    </defs>
    <g fill="none" fill-rule="evenodd">
        <mask id="b" fill="#fff">
            <use xlink:href="#a"/>
        </mask>
        <use stroke="#000" stroke-linecap="round" stroke-linejoin="round" stroke-width="2" xlink:href="#a"/>
        <g mask="url(#b)">
            <use fill="#000" fill-opacity="0" xlink:href="#c"/>
        </g>
    </g>
</svg>
