<svg xmlns="http://www.w3.org/2000/svg" xmlns:xlink="http://www.w3.org/1999/xlink" width="24" height="24" viewBox="0 0 24 24">
    <defs>
        <path id="a" d="M23.021 8.692C21.72 4.49 20.218 2.09 17.915.888c-2.103-1.2-5.006-1.2-9.212.1C.593 3.39-1.509 7.292.993 15.296 2.797 21.299 5.4 24 9.906 24c1.602 0 3.304-.3 5.407-.9 8.01-2.502 10.212-6.404 7.71-14.408zM14.711 21.1c-7.009 2.1-9.712.6-11.815-6.404C.794 7.792 2.296 4.99 9.304 2.89c2.003-.6 3.605-.9 4.906-.9 1.102 0 2.103.2 2.904.6 1.702.9 3.004 3.002 4.105 6.604 2.002 7.003.5 9.804-6.508 11.906zm3.004-9.505l-1.903.7-1.001-2.801 1.902-.7c.501-.2.801-.701.601-1.301-.2-.5-.7-.8-1.302-.6l-1.902.7-.7-1.901c-.201-.5-.702-.8-1.302-.6-.501.2-.801.7-.601 1.3l.7 1.901-2.803 1-.6-2c-.2-.5-.801-.8-1.302-.6-.5.1-.801.7-.6 1.2l.7 1.9-1.902.701c-.501.2-.801.7-.601 1.3.1.401.5.701.901.701.1 0 .2 0 .3-.1l1.903-.7 1.001 2.801-1.902.7c-.501.2-.801.7-.601 1.301.1.4.5.7.901.7.1 0 .2 0 .3-.1l1.903-.7.7 1.901c.1.4.501.7.902.7.1 0 .2 0 .3-.1.5-.2.801-.7.6-1.3l-.7-1.901 2.803-1 .701 1.9c.1.4.501.7.901.7.1 0 .2 0 .3-.1.501-.2.802-.7.602-1.3l-.701-1.901 1.902-.7c.5-.2.801-.7.6-1.301-.2-.6-.5-.6-1-.4zm-6.609 2.3l-1-2.8 2.803-1.001 1 2.801-2.803 1z"/>
    </defs>
    <g fill="none" fill-rule="evenodd">
        <mask id="b" fill="#fff">
            <use xlink:href="#a"/>
        </mask>
        <use fill="#000" fill-rule="nonzero" xlink:href="#a"/>
        <g fill="#000" mask="url(#b)">
            <path d="M0 0h24v24H0z"/>
        </g>
    </g>
</svg>
