<svg xmlns="http://www.w3.org/2000/svg" width="24" height="24" viewBox="0 0 24 24">
    <g fill="#4A4A4F" fill-rule="evenodd">
        <path fill-rule="nonzero" d="M22.764 11.38c-.093.066-.184.128-.276.19V2.323c0-1.284-.966-2.322-2.154-2.322H3.578C2.39 0 1.425 1.038 1.425 2.322v9.257c-.096-.065-.192-.13-.288-.199-.714-.498-1.182.18-.744.828.852 1.044 2.471 2.34 4.955 3.36-2.628 8.95 6.413 10.373 6.275 5.783l.009-4.513c.237.056.443.11.637.159l.008 4.354c-.138 4.59 8.909 3.168 6.275-5.783 2.484-1.02 4.104-2.316 4.955-3.36.438-.648-.03-1.326-.743-.828zm-8.92 2.28c-1.107-.056-1.517.42-1.571 1.153a8.155 8.155 0 0 1-.817-.673 3.05 3.05 0 0 0-.133-.118c-.243-.255-.643-.393-1.265-.362-1.482.046-4.195.34-7.355-1.315V3.37c0-1.625.414-2.135 1.902-2.135h14.83c1.41 0 1.907.606 1.907 2.135v8.899c-3.222 1.741-5.995 1.437-7.499 1.39z"/>
        <path d="M15.463 7.175c-1.59 0-2.88 1.206-2.88 2.694s1.29 2.693 2.88 2.693c1.59 0 2.88-1.205 2.88-2.693s-1.29-2.694-2.88-2.694z"/>
        <ellipse cx="8.761" cy="9.869" rx="2.879" ry="2.694"/>
    </g>
</svg>
