<svg xmlns="http://www.w3.org/2000/svg" xmlns:xlink="http://www.w3.org/1999/xlink" width="24" height="24" viewBox="0 0 24 24">
    <defs>
        <path id="a" d="M23.575 2.189c-.3-.201-.798-.201-1.098 0-.698.503-1.497.905-2.295 1.207-1.996-1.81-5.089-1.911-7.184 0C11.7 4.4 11.002 5.91 11.002 7.519c-2.894-.201-5.488-1.71-7.185-4.123-.2-.302-.499-.403-.898-.403s-.698.302-.798.604c-.1.1-1.098 2.514-.998 5.43.1 2.514 1.098 5.732 4.79 8.045-1.497.704-3.193 1.006-4.89 1.006-.399 0-.898.302-.998.704-.1.402.1.905.5 1.106C3.018 21.296 5.712 22 8.207 22s4.89-.603 7.085-1.91c4.29-2.414 6.685-7.04 6.685-12.571v-.503c.998-1.106 1.697-2.414 1.996-3.822a.96.96 0 0 0-.4-1.005zM20.182 6.01c-.2.201-.3.604-.3.905.1.201.1.403.1.604 0 4.827-2.095 8.749-5.687 10.86-2.794 1.61-6.087 2.012-9.38 1.207 1.297-.402 2.495-.905 3.592-1.71.4-.2.5-.502.5-.904s-.3-.704-.6-.805C2.62 13.553 2.82 8.625 3.418 6.111A11.61 11.61 0 0 0 12 9.53c.499 0 .998-.503.998-1.006V7.52c0-1.006.399-2.012 1.197-2.716 1.397-1.307 3.692-1.106 4.89.302.299.302.698.402.997.302.2-.1.5-.1.699-.201-.2.301-.4.503-.599.804z"/>
    </defs>
    <g fill="none" fill-rule="evenodd">
        <mask id="b" fill="#fff">
            <use xlink:href="#a"/>
        </mask>
        <use fill="#000" fill-rule="nonzero" xlink:href="#a"/>
        <g fill="#000" mask="url(#b)">
            <path d="M0 0h24v24H0z"/>
        </g>
    </g>
</svg>
