<svg xmlns="http://www.w3.org/2000/svg" width="24" height="24" viewBox="0 0 24 24">
    <path fill="#4A4A4F" fill-rule="nonzero" d="M19.292 8.554c-.586.158-5.948 4.316-6.301 5.336-.078.353.007 3.77.085 4.283.354.078 2.904.01 3.373.088l-.057 1.056c-.458-.035-3.7-.027-5.549-.027-.94 0-3.96.104-4.889.077l.176-1.005c.509-.038 2.616.093 3.077-.399.23-.245.158-3.492.08-4.041-.195-.588-4.894-6.476-6.122-7.44H0v-1.48h10.674v.101c.01 0 .027.002.036.004l-.036.25v1.124H7.455c1.435 2.098 3.492 4.63 4.369 5.848l4.299-3.896h-2.555l-.36-1.479h9.36l-.069.106.033.001-.668.97a.091.091 0 0 0-.022.004l-.27.398h-1.726c-.224.05-.42.093-.554.12zm3.055 9.27l-.827-.04-.922-.113.008 1.58.727.063.784.058.23-1.548zm1.604-7.556c-.279-.01-2.815-.25-3.144-.315l.039 6.678 1.435.116 1.67-6.479z"/>
</svg>
