<svg xmlns="http://www.w3.org/2000/svg" xmlns:xlink="http://www.w3.org/1999/xlink" width="24" height="24" viewBox="0 0 24 24">
  <path
    d="M20.9 7.6c-.1-.1-.1-.2-.2-.3l-6-6c-.1-.1-.2-.2-.3-.2-.1-.1-.3-.1-.4-.1H6C4.3 1 3 2.3 3 4v16c0 1.7 1.3 3 3 3h12c1.7 0 3-1.3 3-3V8c0-.1 0-.3-.1-.4zM15 4.4L17.6 7H15V4.4zM18 21H6c-.6 0-1-.4-1-1V4c0-.6.4-1 1-1h7v5c0 .6.4 1 1 1h5v11c0 .6-.4 1-1 1zm-1-8c0 .6-.4 1-1 1H8c-.6 0-1-.4-1-1s.4-1 1-1h8c.6 0 1 .4 1 1zm0 4c0 .6-.4 1-1 1H8c-.6 0-1-.4-1-1s.4-1 1-1h8c.6 0 1 .4 1 1zM7 9c0-.6.4-1 1-1h2c.6 0 1 .4 1 1s-.4 1-1 1H8c-.6 0-1-.4-1-1z"
    fill="currentColor"
    fill-rule="evenodd"
  />
</svg>
