<svg xmlns="http://www.w3.org/2000/svg" xmlns:xlink="http://www.w3.org/1999/xlink" width="24" height="24" viewBox="0 0 24 24">
  <path
    d="M18.023 1.617a11.762 11.762 0 0 1 4.372 4.36C23.465 7.82 24 9.828 24 12c0 2.172-.535 4.18-1.605 6.023a11.85 11.85 0 0 1-4.372 4.372C16.18 23.465 14.172 24 12 24c-2.172 0-4.18-.535-6.023-1.605a11.85 11.85 0 0 1-4.372-4.372C.535 16.18 0 14.172 0 12c0-2.172.535-4.18 1.605-6.023a11.85 11.85 0 0 1 4.372-4.372C7.82.535 9.828 0 12 0c2.172 0 4.18.54 6.023 1.617zM15 1.945V6.82A5.837 5.837 0 0 1 17.18 9h4.875c-.25-.844-.602-1.64-1.055-2.39-.453-.75-.98-1.426-1.582-2.028A10.619 10.619 0 0 0 17.391 3 10.216 10.216 0 0 0 15 1.945zM16.5 12c0-.813-.203-1.562-.61-2.25a4.586 4.586 0 0 0-1.64-1.64A4.343 4.343 0 0 0 12 7.5c-1.234 0-2.293.441-3.176 1.324S7.5 10.766 7.5 12c0 .813.203 1.566.61 2.262a4.466 4.466 0 0 0 1.64 1.64A4.409 4.409 0 0 0 12 16.5c1.234 0 2.293-.437 3.176-1.313.883-.875 1.324-1.937 1.324-3.187zm-6-10.383v4.594C11.016 6.07 11.52 6 12.012 6s.988.07 1.488.21V1.618a9.703 9.703 0 0 0-3 0zM9 1.945c-1.047.313-2.031.79-2.953 1.43C4.016 4.765 2.648 6.641 1.945 9H6.82A6.082 6.082 0 0 1 9 6.82V1.945zM1.5 12c0 .469.04.969.117 1.5h4.57C6.063 13 6 12.5 6 12s.07-1 .21-1.5H1.618l-.047.375a6.08 6.08 0 0 0-.035.375l-.023.375A6.01 6.01 0 0 0 1.5 12zM9 22.055V17.18A5.837 5.837 0 0 1 6.82 15H1.945c.5 1.688 1.38 3.16 2.637 4.418A10.294 10.294 0 0 0 9 22.055zm4.5.328v-4.57c-.5.125-.996.187-1.488.187s-.996-.062-1.512-.188v4.57a9.702 9.702 0 0 0 3 0zm1.5-.328a10.147 10.147 0 0 0 3.105-1.512 10.413 10.413 0 0 0 2.426-2.438c.672-.945 1.18-1.98 1.524-3.105H17.18A5.837 5.837 0 0 1 15 17.18v4.875zm2.813-8.555h4.57c.078-.531.117-1.031.117-1.5 0-.469-.04-.969-.117-1.5h-4.594c.14.5.211 1 .211 1.5a6.041 6.041 0 0 1-.188 1.5z"
    fill="currentColor"
    fill-rule="evenodd"
  />
</svg>
