<svg xmlns="http://www.w3.org/2000/svg" xmlns:xlink="http://www.w3.org/1999/xlink" width="24" height="24" viewBox="0 0 24 24">
  <g fill="none" fill-rule="evenodd">
    <path
      fill="currentColor"
      fill-rule="nonzero"
      d="M4 4h16a3 3 0 0 1 3 3v10a3 3 0 0 1-3 3H4a3 3 0 0 1-3-3V7a3 3 0 0 1 3-3zm0 2a1 1 0 0 0-1 1v10a1 1 0 0 0 1 1h16a1 1 0 0 0 1-1V7a1 1 0 0 0-1-1H4z"
    />
    <rect
      width="6"
      height="2"
      x="13"
      y="8"
      fill="currentColor"
      fill-rule="nonzero"
      rx="1"
    />
    <rect
      width="4"
      height="2"
      x="13"
      y="12"
      fill="currentColor"
      fill-rule="nonzero"
      rx="1"
    />
    <rect
      width="5"
      height="6"
      x="5"
      y="9"
      stroke="currentColor"
      stroke-width="2"
      rx="1"
    />
  </g>
</svg>
