<svg xmlns="http://www.w3.org/2000/svg" xmlns:xlink="http://www.w3.org/1999/xlink" width="24" height="24" viewBox="0 0 24 24">
  <path
    d="M2,20.0001 L2,5.00004167 L22.0000778,5.00004167 L22.0000778,20.0001 L2,20.0001 Z M3.66708982,18.3338435 L20.3338213,18.3338435 L20.3338213,6.66671481 L3.66708982,6.66671481 L3.66708982,18.3338435 Z M12.8333755,10.0000611 L12.8333755,8.33338796 L14.9167169,8.33338796 L14.9167169,10.0000611 L12.8333755,10.0000611 Z M9.08336088,10.0000611 L9.08336088,8.33338796 L11.5833706,8.33338796 L11.5833706,10.0000611 L9.08336088,10.0000611 Z M5.3333463,10.0000611 L5.3333463,8.33338796 L7.83335602,8.33338796 L7.83335602,10.0000611 L5.3333463,10.0000611 Z M16.58339,13.3334074 L16.58339,11.6667343 L18.6667315,11.6667343 L18.6667315,13.3334074 L16.58339,13.3334074 Z M13.2500437,13.3334074 L13.2500437,11.6667343 L15.3333852,11.6667343 L15.3333852,13.3334074 L13.2500437,13.3334074 Z M9.91669745,13.3334074 L9.91669745,11.6667343 L12.0000389,11.6667343 L12.0000389,13.3334074 L9.91669745,13.3334074 Z M5.3333463,13.3334074 L5.3333463,11.6667343 L8.66669259,11.6667343 L8.66669259,13.3334074 L5.3333463,13.3334074 Z M16.1667218,10.0000611 L16.1667218,8.33338796 L18.6667315,8.33338796 L18.6667315,10.0000611 L16.1667218,10.0000611 Z M5.3333463,16.6667537 L5.3333463,15.0000806 L18.6667315,15.0000806 L18.6667315,16.6667537 L5.3333463,16.6667537 Z"
    fill="currentColor"
  />
</svg>
