<svg xmlns="http://www.w3.org/2000/svg" xmlns:xlink="http://www.w3.org/1999/xlink" width="24" height="24" viewBox="0 0 24 24">
  <path d="M11.373 20.182c0 .49-.328.818-.82.818H6.459C5.065 21 4 19.936 4 18.545V5.455C4 4.064 5.065 3 6.458 3h4.096c.491 0 .819.327.819.818 0 .491-.328.818-.82.818H6.459c-.492 0-.82.328-.82.819v13.09c0 .491.328.819.82.819h4.096c.491 0 .819.327.819.818zm8.93-7.855c.081-.163.081-.409 0-.654-.083-.082-.083-.164-.165-.246l-3.276-3.272a.793.793 0 0 0-1.147 0 .79.79 0 0 0 0 1.145l1.884 1.882H9.734c-.491 0-.819.327-.819.818 0 .49.328.818.82.818h7.864L15.715 14.7a.79.79 0 0 0 0 1.145c.163.164.41.246.573.246.164 0 .41-.082.574-.246l3.276-3.272c.082-.082.164-.164.164-.246z"/>
</svg>
