<svg xmlns="http://www.w3.org/2000/svg" xmlns:xlink="http://www.w3.org/1999/xlink" width="24" height="24" viewBox="0 0 24 24">
  <defs>
    <path id="a" d="M0 0h24v24H0z" />
  </defs>
  <g fill="none" fill-rule="evenodd">
    <path
      fill="currentColor"
      fill-rule="nonzero"
      d="M22.276 15.227H24V18h-5.436v-7.193c0-2.21-.752-3.034-2.21-3.034-1.768 0-2.476 1.257-2.476 2.99v4.42h1.724v2.774h-5.436v-7.15c0-2.21-.752-3.034-2.21-3.034-1.768 0-2.475 1.257-2.475 2.99v4.42h2.475v2.774H0v-2.774h1.724v-7.15H0V5.26h5.436v1.907C6.232 5.823 7.558 5 9.37 5c1.857 0 3.58.867 4.2 2.73C14.275 6.04 15.734 5 17.767 5c2.342 0 4.464 1.387 4.464 4.377v5.85h.044z"
    />
    <use fill="currentColor" fill-opacity="0" href="#a" />
  </g>
</svg>
