<svg xmlns="http://www.w3.org/2000/svg" xmlns:xlink="http://www.w3.org/1999/xlink" width="24" height="24" viewBox="0 0 24 24">
  <path
    fill="currentColor"
    d="M20.388 13.959c-.904-.1-1.808-.301-2.612-.603-1.105-.402-2.31-.1-3.214.703l-.704.704c-1.808-1.206-3.415-2.713-4.62-4.621l.703-.704c.803-.803 1.105-2.11.703-3.214a11.007 11.007 0 0 1-.603-2.612C9.841 2.105 8.534 1 7.027 1H3.712c-.803.1-1.507.502-2.009 1.105S1 3.511 1 4.315c.301 3.215 1.507 6.43 3.215 9.142a21.124 21.124 0 0 0 6.328 6.328C13.256 21.594 16.47 22.7 19.685 23h.301c.804 0 1.608-.301 2.11-.904.502-.603.904-1.306.904-2.11v-3.013c0-1.507-1.105-2.813-2.612-3.014zm.603 3.014v3.013c0 .302-.1.503-.302.703-.2.201-.401.302-.803.302-2.913-.302-5.726-1.306-8.238-2.913-2.31-1.407-4.219-3.416-5.726-5.726C4.315 9.84 3.311 7.027 3.01 4.114c0-.301.1-.502.201-.703.201-.201.502-.402.804-.402h3.013c.503 0 .905.402 1.005.904.1 1.005.402 2.11.804 3.014.1.402 0 .804-.201 1.105L7.329 9.237a1.068 1.068 0 0 0-.201 1.206 16.484 16.484 0 0 0 6.43 6.43c.4.2.903.2 1.205-.202l1.305-1.306c.302-.301.704-.402 1.106-.2 1.004.401 2.009.602 3.013.803.402.1.804.502.804 1.005z"
  />
</svg>
