<svg xmlns="http://www.w3.org/2000/svg" xmlns:xlink="http://www.w3.org/1999/xlink" width="24" height="24" viewBox="0 0 24 24">
  <path
    fill="currentColor"
    fill-rule="evenodd"
    d="M23.711 5.974l-4.196 4.192c-.21.21-.42.314-.735.314-.314 0-.524-.104-.734-.314a1.012 1.012 0 0 1 0-1.467l2.413-2.41h-5.875c-.63 0-1.05-.42-1.05-1.049s.42-1.048 1.05-1.048h5.875l-2.413-2.41a1.012 1.012 0 0 1 0-1.468c.42-.419 1.05-.419 1.469 0l4.196 4.193c.105.104.21.21.21.314.105.21.105.524 0 .838 0 .105-.105.21-.21.315zm-.734 11.738v3.144c0 .838-.315 1.677-.944 2.2-.63.525-1.364.944-2.203.944h-.315c-3.358-.42-6.715-1.572-9.548-3.354a22.05 22.05 0 0 1-6.61-6.602C1.47 11.214.315 7.86 0 4.507 0 3.668.21 2.83.734 2.2a3.242 3.242 0 0 1 2.099-1.153H6.295c1.574 0 2.938 1.153 3.148 2.725.105.943.314 1.886.63 2.725.419 1.153.104 2.41-.735 3.354l-.735.733c1.26 1.887 2.833 3.563 4.827 4.821l.734-.734c.84-.838 2.203-1.152 3.357-.733.84.314 1.784.524 2.728.629 1.574.21 2.728 1.572 2.728 3.144zm-2.098 0c0-.524-.42-.943-.945-1.048-1.049-.105-2.098-.42-3.147-.839-.42-.104-.84-.104-1.154.21l-1.364 1.362c-.315.315-.84.42-1.26.21A17.206 17.206 0 0 1 6.296 10.9c-.105-.42 0-.944.315-1.258l1.364-1.363c.21-.21.315-.733.21-1.048-.42-1.048-.63-2.096-.84-3.144 0-.524-.524-.943-1.049-.943H3.148c-.315 0-.63.21-.84.42-.105.209-.21.419-.21.733.315 3.04 1.364 5.974 3.043 8.594 1.574 2.41 3.567 4.506 5.98 5.974 2.623 1.676 5.561 2.725 8.604 3.039.42 0 .63-.105.839-.314.21-.21.315-.42.315-.734v-3.144z"
  />
</svg>
