<svg xmlns="http://www.w3.org/2000/svg" xmlns:xlink="http://www.w3.org/1999/xlink" width="24" height="24" viewBox="0 0 24 24">
  <path d="M5.25 11V5.75c0-.45.3-.75.75-.75s.75.3.75.75V11c0 .45-.3.75-.75.75s-.75-.3-.75-.75zm6.75.75c-.45 0-.75.3-.75.75v6.75c0 .45.3.75.75.75s.75-.3.75-.75V12.5c0-.45-.3-.75-.75-.75zm6 1.5c.45 0 .75-.3.75-.75V5.75c0-.45-.3-.75-.75-.75s-.75.3-.75.75v6.75c0 .45.3.75.75.75zm-9.75 0h-4.5c-.45 0-.75.3-.75.75s.3.75.75.75h1.5v4.5c0 .45.3.75.75.75s.75-.3.75-.75v-4.5h1.5c.45 0 .75-.3.75-.75s-.3-.75-.75-.75zm6-4.5h-1.5v-3c0-.45-.3-.75-.75-.75s-.75.3-.75.75v3h-1.5c-.45 0-.75.3-.75.75s.3.75.75.75h4.5c.45 0 .75-.3.75-.75s-.3-.75-.75-.75zm6 6h-4.5c-.45 0-.75.3-.75.75s.3.75.75.75h1.5v3c0 .45.3.75.75.75s.75-.3.75-.75v-3h1.5c.45 0 .75-.3.75-.75s-.3-.75-.75-.75z"/>
</svg>
