<svg xmlns="http://www.w3.org/2000/svg" xmlns:xlink="http://www.w3.org/1999/xlink" width="24" height="24" viewBox="0 0 24 24">
  <path
    fill="currentColor"
    d="M19 2H5C3.3 2 2 3.3 2 5v14c0 1.7 1.3 3 3 3h14c1.7 0 3-1.3 3-3V5c0-1.7-1.3-3-3-3zm1 17c0 .6-.4 1-1 1H5c-.6 0-1-.4-1-1V5c0-.6.4-1 1-1h14c.6 0 1 .4 1 1v14zm-4.536-4.908c0-.483-.085-.903-.256-1.26a2.693 2.693 0 0 0-.806-.959c-.366-.283-.942-.588-1.728-.915-.698-.289-1.182-.52-1.45-.696-.269-.176-.462-.363-.579-.56a1.377 1.377 0 0 1-.176-.715c0-.405.147-.73.44-.977.293-.247.722-.37 1.289-.37.747 0 1.596.2 2.549.6l.556-1.428c-1.015-.45-2.036-.674-3.061-.674-1.07 0-1.922.257-2.556.77-.635.512-.953 1.215-.953 2.109 0 .712.2 1.323.601 1.83.4.508 1.089.96 2.065 1.356.948.38 1.573.71 1.875.988.303.279.455.618.455 1.018 0 .445-.165.799-.495 1.062-.33.264-.84.396-1.534.396a6.6 6.6 0 0 1-1.535-.198 8.082 8.082 0 0 1-1.556-.542v1.656c.771.375 1.763.563 2.974.563 1.21 0 2.16-.27 2.849-.813.688-.541 1.032-1.289 1.032-2.24z"
  />
</svg>
